<mxfile host="app.diagrams.net" agent="Mozilla/5.0 (Windows NT 10.0; Win64; x64) AppleWebKit/537.36 (KHTML, like Gecko) Chrome/129.0.0.0 Safari/537.36" version="24.7.17">
  <diagram name="Sida-1" id="KlPVk4Ot-oC24JNvByVq">
    <mxGraphModel dx="1444" dy="895" grid="1" gridSize="10" guides="1" tooltips="1" connect="1" arrows="1" fold="1" page="1" pageScale="1" pageWidth="827" pageHeight="1169" math="0" shadow="0">
      <root>
        <mxCell id="0" />
        <mxCell id="1" parent="0" />
        <mxCell id="LrkQv0Cpc8-Okp7BfNND-1" value="" style="ellipse;html=1;shape=startState;fillColor=#000000;strokeColor=#ff0000;" vertex="1" parent="1">
          <mxGeometry x="90" y="100" width="30" height="30" as="geometry" />
        </mxCell>
        <mxCell id="LrkQv0Cpc8-Okp7BfNND-2" value="" style="edgeStyle=orthogonalEdgeStyle;html=1;verticalAlign=bottom;endArrow=open;endSize=8;strokeColor=#ff0000;rounded=0;" edge="1" source="LrkQv0Cpc8-Okp7BfNND-1" parent="1">
          <mxGeometry relative="1" as="geometry">
            <mxPoint x="220" y="115" as="targetPoint" />
          </mxGeometry>
        </mxCell>
        <mxCell id="LrkQv0Cpc8-Okp7BfNND-4" style="edgeStyle=orthogonalEdgeStyle;rounded=0;orthogonalLoop=1;jettySize=auto;html=1;" edge="1" parent="1" source="LrkQv0Cpc8-Okp7BfNND-3">
          <mxGeometry relative="1" as="geometry">
            <mxPoint x="400" y="115" as="targetPoint" />
          </mxGeometry>
        </mxCell>
        <mxCell id="LrkQv0Cpc8-Okp7BfNND-3" value="Login" style="html=1;whiteSpace=wrap;" vertex="1" parent="1">
          <mxGeometry x="220" y="90" width="110" height="50" as="geometry" />
        </mxCell>
        <mxCell id="LrkQv0Cpc8-Okp7BfNND-7" style="edgeStyle=orthogonalEdgeStyle;rounded=0;orthogonalLoop=1;jettySize=auto;html=1;" edge="1" parent="1" source="LrkQv0Cpc8-Okp7BfNND-6">
          <mxGeometry relative="1" as="geometry">
            <mxPoint x="570" y="115" as="targetPoint" />
          </mxGeometry>
        </mxCell>
        <mxCell id="LrkQv0Cpc8-Okp7BfNND-10" value="Correct" style="edgeLabel;html=1;align=center;verticalAlign=middle;resizable=0;points=[];" vertex="1" connectable="0" parent="LrkQv0Cpc8-Okp7BfNND-7">
          <mxGeometry x="-0.2726" relative="1" as="geometry">
            <mxPoint as="offset" />
          </mxGeometry>
        </mxCell>
        <mxCell id="LrkQv0Cpc8-Okp7BfNND-8" style="edgeStyle=orthogonalEdgeStyle;rounded=0;orthogonalLoop=1;jettySize=auto;html=1;entryX=0.442;entryY=-0.027;entryDx=0;entryDy=0;entryPerimeter=0;exitX=0.5;exitY=0;exitDx=0;exitDy=0;" edge="1" parent="1" source="LrkQv0Cpc8-Okp7BfNND-6" target="LrkQv0Cpc8-Okp7BfNND-3">
          <mxGeometry relative="1" as="geometry">
            <mxPoint x="320" y="50" as="targetPoint" />
            <mxPoint x="430" y="40" as="sourcePoint" />
            <Array as="points">
              <mxPoint x="445" y="40" />
              <mxPoint x="269" y="40" />
            </Array>
          </mxGeometry>
        </mxCell>
        <mxCell id="LrkQv0Cpc8-Okp7BfNND-9" value="Incorrect" style="edgeLabel;html=1;align=center;verticalAlign=middle;resizable=0;points=[];" vertex="1" connectable="0" parent="LrkQv0Cpc8-Okp7BfNND-8">
          <mxGeometry x="-0.3195" y="1" relative="1" as="geometry">
            <mxPoint as="offset" />
          </mxGeometry>
        </mxCell>
        <mxCell id="LrkQv0Cpc8-Okp7BfNND-6" value="Correct Credentials?" style="rhombus;whiteSpace=wrap;html=1;" vertex="1" parent="1">
          <mxGeometry x="400" y="76.25" width="90" height="77.5" as="geometry" />
        </mxCell>
        <mxCell id="LrkQv0Cpc8-Okp7BfNND-12" style="edgeStyle=orthogonalEdgeStyle;rounded=0;orthogonalLoop=1;jettySize=auto;html=1;" edge="1" parent="1" source="LrkQv0Cpc8-Okp7BfNND-11">
          <mxGeometry relative="1" as="geometry">
            <mxPoint x="625" y="260" as="targetPoint" />
          </mxGeometry>
        </mxCell>
        <mxCell id="LrkQv0Cpc8-Okp7BfNND-11" value="Create Post" style="html=1;whiteSpace=wrap;" vertex="1" parent="1">
          <mxGeometry x="570" y="90" width="110" height="50" as="geometry" />
        </mxCell>
        <mxCell id="LrkQv0Cpc8-Okp7BfNND-14" style="edgeStyle=orthogonalEdgeStyle;rounded=0;orthogonalLoop=1;jettySize=auto;html=1;" edge="1" parent="1" source="LrkQv0Cpc8-Okp7BfNND-19" target="LrkQv0Cpc8-Okp7BfNND-15">
          <mxGeometry relative="1" as="geometry">
            <mxPoint x="625" y="460" as="targetPoint" />
          </mxGeometry>
        </mxCell>
        <mxCell id="LrkQv0Cpc8-Okp7BfNND-21" value="Yes" style="edgeLabel;html=1;align=center;verticalAlign=middle;resizable=0;points=[];" vertex="1" connectable="0" parent="LrkQv0Cpc8-Okp7BfNND-14">
          <mxGeometry x="-0.2628" y="-1" relative="1" as="geometry">
            <mxPoint as="offset" />
          </mxGeometry>
        </mxCell>
        <mxCell id="LrkQv0Cpc8-Okp7BfNND-13" value="Write Post-message" style="html=1;whiteSpace=wrap;" vertex="1" parent="1">
          <mxGeometry x="570" y="260" width="110" height="50" as="geometry" />
        </mxCell>
        <mxCell id="LrkQv0Cpc8-Okp7BfNND-17" style="edgeStyle=orthogonalEdgeStyle;rounded=0;orthogonalLoop=1;jettySize=auto;html=1;entryX=0.5;entryY=0;entryDx=0;entryDy=0;" edge="1" parent="1" source="LrkQv0Cpc8-Okp7BfNND-15" target="LrkQv0Cpc8-Okp7BfNND-16">
          <mxGeometry relative="1" as="geometry" />
        </mxCell>
        <mxCell id="LrkQv0Cpc8-Okp7BfNND-15" value="Publish Post" style="html=1;whiteSpace=wrap;" vertex="1" parent="1">
          <mxGeometry x="570" y="535" width="110" height="50" as="geometry" />
        </mxCell>
        <mxCell id="LrkQv0Cpc8-Okp7BfNND-16" value="" style="ellipse;html=1;shape=endState;fillColor=#000000;strokeColor=#ff0000;" vertex="1" parent="1">
          <mxGeometry x="610" y="670" width="30" height="30" as="geometry" />
        </mxCell>
        <mxCell id="LrkQv0Cpc8-Okp7BfNND-20" value="" style="edgeStyle=orthogonalEdgeStyle;rounded=0;orthogonalLoop=1;jettySize=auto;html=1;" edge="1" parent="1" source="LrkQv0Cpc8-Okp7BfNND-13" target="LrkQv0Cpc8-Okp7BfNND-19">
          <mxGeometry relative="1" as="geometry">
            <mxPoint x="625" y="460" as="targetPoint" />
            <mxPoint x="625" y="310" as="sourcePoint" />
          </mxGeometry>
        </mxCell>
        <mxCell id="LrkQv0Cpc8-Okp7BfNND-22" style="edgeStyle=orthogonalEdgeStyle;rounded=0;orthogonalLoop=1;jettySize=auto;html=1;entryX=1;entryY=0.5;entryDx=0;entryDy=0;" edge="1" parent="1" source="LrkQv0Cpc8-Okp7BfNND-19" target="LrkQv0Cpc8-Okp7BfNND-11">
          <mxGeometry relative="1" as="geometry">
            <mxPoint x="740" y="120" as="targetPoint" />
            <Array as="points">
              <mxPoint x="700" y="370" />
              <mxPoint x="700" y="115" />
            </Array>
          </mxGeometry>
        </mxCell>
        <mxCell id="LrkQv0Cpc8-Okp7BfNND-23" value="No" style="edgeLabel;html=1;align=center;verticalAlign=middle;resizable=0;points=[];" vertex="1" connectable="0" parent="LrkQv0Cpc8-Okp7BfNND-22">
          <mxGeometry x="-0.1871" y="-1" relative="1" as="geometry">
            <mxPoint as="offset" />
          </mxGeometry>
        </mxCell>
        <mxCell id="LrkQv0Cpc8-Okp7BfNND-19" value="Publish Post?" style="rhombus;whiteSpace=wrap;html=1;" vertex="1" parent="1">
          <mxGeometry x="580" y="340" width="90" height="77.5" as="geometry" />
        </mxCell>
      </root>
    </mxGraphModel>
  </diagram>
</mxfile>
